<svg width="69" height="68" viewBox="0 0 69 68" fill="none" xmlns="http://www.w3.org/2000/svg">
<mask id="mask0_2193_5592" style="mask-type:alpha" maskUnits="userSpaceOnUse" x="-1" y="-1" width="71" height="69">
<path d="M0 67.4174V26.2706V0H69V33.5505V67.4174H0Z" fill="#C4C4C4" stroke="#464646"/>
</mask>
<g mask="url(#mask0_2193_5592)">
<circle cx="38.0184" cy="60.0551" r="4.68937" fill="#484848" stroke="#464646"/>
<mask id="path-3-inside-1_2193_5592" fill="white">
<path d="M50.7058 49.7273C51.5403 48.9088 51.6213 47.5794 50.8033 46.7443C49.0699 44.9749 47.0813 43.5235 44.9138 42.4513C42.1477 41.083 39.1511 40.3626 36.116 40.3362C33.081 40.3098 30.0743 40.9779 27.2887 42.2979C25.1074 43.3314 23.0994 44.7467 21.3415 46.484C20.509 47.3068 20.569 48.6389 21.3914 49.4717C22.3263 50.4184 23.8653 50.3459 24.8534 49.4548C26.1117 48.3201 27.5122 47.3813 29.0153 46.6691C31.2452 45.6125 33.652 45.0777 36.0815 45.0988C38.511 45.12 40.9097 45.6967 43.1239 46.7919C44.6188 47.5314 46.0074 48.4962 47.2506 49.6551C48.2223 50.5608 49.7574 50.6575 50.7058 49.7273Z"/>
</mask>
<path d="M50.7058 49.7273C51.5403 48.9088 51.6213 47.5794 50.8033 46.7443C49.0699 44.9749 47.0813 43.5235 44.9138 42.4513C42.1477 41.083 39.1511 40.3626 36.116 40.3362C33.081 40.3098 30.0743 40.9779 27.2887 42.2979C25.1074 43.3314 23.0994 44.7467 21.3415 46.484C20.509 47.3068 20.569 48.6389 21.3914 49.4717C22.3263 50.4184 23.8653 50.3459 24.8534 49.4548C26.1117 48.3201 27.5122 47.3813 29.0153 46.6691C31.2452 45.6125 33.652 45.0777 36.0815 45.0988C38.511 45.12 40.9097 45.6967 43.1239 46.7919C44.6188 47.5314 46.0074 48.4962 47.2506 49.6551C48.2223 50.5608 49.7574 50.6575 50.7058 49.7273Z" fill="#C4C4C4" stroke="#464646" stroke-width="8" mask="url(#path-3-inside-1_2193_5592)"/>
<mask id="path-4-inside-2_2193_5592" fill="white">
<path d="M34.9618 28.0122C34.9259 26.803 33.9142 25.8451 32.7102 25.9627C28.8145 26.3432 25.0053 27.4094 21.4499 29.1202C17.8533 30.8508 14.5809 33.21 11.7755 36.0883C10.9637 36.9213 11.0453 38.2518 11.9024 39.0381C12.7962 39.8581 14.1859 39.7713 15.0435 38.9135C17.4398 36.5166 20.2115 34.5449 23.2468 33.0844C26.2815 31.6241 29.5273 30.7 32.8486 30.3452C34.0484 30.217 34.9975 29.2182 34.9618 28.0122Z"/>
</mask>
<path d="M34.9618 28.0122C34.9259 26.803 33.9142 25.8451 32.7102 25.9627C28.8145 26.3432 25.0053 27.4094 21.4499 29.1202C17.8533 30.8508 14.5809 33.21 11.7755 36.0883C10.9637 36.9213 11.0453 38.2518 11.9024 39.0381C12.7962 39.8581 14.1859 39.7713 15.0435 38.9135C17.4398 36.5166 20.2115 34.5449 23.2468 33.0844C26.2815 31.6241 29.5273 30.7 32.8486 30.3452C34.0484 30.217 34.9975 29.2182 34.9618 28.0122Z" fill="#C4C4C4" stroke="#464646" stroke-width="8" mask="url(#path-4-inside-2_2193_5592)"/>
<mask id="path-5-inside-3_2193_5592" fill="white">
<path d="M59.5368 36.4272C60.304 35.5478 60.2374 34.2119 59.3347 33.4724C54.7092 29.6829 49.2099 27.1911 43.3744 26.2393C42.1777 26.0441 41.105 26.9397 40.9959 28.1473C40.8876 29.3456 41.7698 30.3979 42.9555 30.6017C47.8503 31.4429 52.467 33.5225 56.3901 36.653C57.3414 37.4121 58.7368 37.3442 59.5368 36.4272Z"/>
</mask>
<path d="M59.5368 36.4272C60.304 35.5478 60.2374 34.2119 59.3347 33.4724C54.7092 29.6829 49.2099 27.1911 43.3744 26.2393C42.1777 26.0441 41.105 26.9397 40.9959 28.1473C40.8876 29.3456 41.7698 30.3979 42.9555 30.6017C47.8503 31.4429 52.467 33.5225 56.3901 36.653C57.3414 37.4121 58.7368 37.3442 59.5368 36.4272Z" fill="#C4C4C4" stroke="#464646" stroke-width="8" mask="url(#path-5-inside-3_2193_5592)"/>
<mask id="path-6-inside-4_2193_5592" fill="white">
<path d="M25.8855 15.8394C25.7583 14.5776 24.6305 13.6512 23.378 13.8498C15.1949 15.1468 7.60475 18.9254 1.63726 24.6728C0.723835 25.5526 0.783228 27.0108 1.71333 27.8729C2.64343 28.735 4.09148 28.6738 5.01126 27.8007C10.2097 22.8662 16.7691 19.6007 23.8399 18.4273C25.091 18.2197 26.0127 17.1012 25.8855 15.8394Z"/>
</mask>
<path d="M25.8855 15.8394C25.7583 14.5776 24.6305 13.6512 23.378 13.8498C15.1949 15.1468 7.60475 18.9254 1.63726 24.6728C0.723835 25.5526 0.783228 27.0108 1.71333 27.8729C2.64343 28.735 4.09148 28.6738 5.01126 27.8007C10.2097 22.8662 16.7691 19.6007 23.8399 18.4273C25.091 18.2197 26.0127 17.1012 25.8855 15.8394Z" fill="#C4C4C4" stroke="#464646" stroke-width="8" mask="url(#path-6-inside-4_2193_5592)"/>
<mask id="path-7-inside-5_2193_5592" fill="white">
<path d="M66.5556 26.3867C67.5035 25.5441 67.5934 24.0876 66.6985 23.189C62.4024 18.8752 57.1808 15.5788 51.4173 13.5569C45.6539 11.5351 39.5173 10.847 33.4677 11.5315C32.2076 11.6741 31.3678 12.8676 31.5816 14.1176C31.7954 15.3677 32.9818 16.2 34.243 16.0665C39.5222 15.508 44.8698 16.1269 49.8971 17.8905C54.9244 19.6541 59.4867 22.5116 63.26 26.2458C64.1614 27.1379 65.6077 27.2292 66.5556 26.3867Z"/>
</mask>
<path d="M66.5556 26.3867C67.5035 25.5441 67.5934 24.0876 66.6985 23.189C62.4024 18.8752 57.1808 15.5788 51.4173 13.5569C45.6539 11.5351 39.5173 10.847 33.4677 11.5315C32.2076 11.6741 31.3678 12.8676 31.5816 14.1176C31.7954 15.3677 32.9818 16.2 34.243 16.0665C39.5222 15.508 44.8698 16.1269 49.8971 17.8905C54.9244 19.6541 59.4867 22.5116 63.26 26.2458C64.1614 27.1379 65.6077 27.2292 66.5556 26.3867Z" fill="#C4C4C4" stroke="#464646" stroke-width="8" mask="url(#path-7-inside-5_2193_5592)"/>
<rect x="10.8316" y="3.53315" width="4.00304" height="75.7102" rx="2.00152" transform="rotate(-38.8995 10.8316 3.53315)" fill="#484848" stroke="#464646"/>
</g>
</svg>
